<svg id="Layer_1" data-name="Layer 1" xmlns="http://www.w3.org/2000/svg" viewBox="0 0 1200.58 348.52"><defs><style>.cls-1,.cls-2{fill:#f15a24;}.cls-2{font-size:147.37px;font-family:DINAlternate-Bold, DIN Alternate;font-weight:700;letter-spacing:-0.02em;}.cls-3{letter-spacing:0em;}</style></defs><title>virtualcookbook</title><polygon class="cls-1" points="112.83 122.68 112.83 94.03 111.04 89.55 108.35 92.23 107.96 122.68 112.83 122.68"/><polygon class="cls-1" points="42.09 127.16 108.35 127.16 108.35 145.96 112.83 145.96 112.83 122.68 37.61 122.68 37.61 146.86 42.09 145.96 42.09 127.16"/><polygon class="cls-1" points="39.4 23.28 31.34 24.18 26.86 25.07 21.49 27.76 14.33 33.13 10.75 37.61 7.16 43.88 5.37 50.15 4.48 55.52 5.37 63.58 8.06 70.74 11.64 77.01 17.91 83.28 24.18 86.86 30.45 88.65 38.51 89.55 40.3 90.44 42.09 92.23 42.09 122.68 37.61 122.68 37.61 94.03 32.24 94.03 25.97 92.23 19.7 89.55 14.33 85.97 7.16 78.8 3.58 72.53 0 62.68 0 53.73 0.9 46.56 5.37 36.71 10.75 29.55 17.91 24.18 23.28 21.49 28.66 19.7 34.92 18.8 42.09 18.8 39.4 23.28"/><polygon class="cls-1" points="42.09 47.46 42.09 35.82 43.88 26.86 48.36 18.8 52.83 13.43 60.89 8.06 68.95 5.37 76.11 4.48 82.38 5.37 88.65 7.16 94.03 10.75 100.29 16.12 103.88 21.49 106.56 26.86 110.14 23.28 107.46 17.91 102.98 12.54 98.5 8.06 93.13 4.48 86.86 1.79 80.59 0 72.53 0 65.37 0.9 60 2.69 55.52 5.37 49.25 9.85 44.77 15.22 41.67 19.5 39.4 23.28 40.3 23.28 38.51 27.76 37.61 34.92 37.61 42.09 37.61 47.46 38.51 49.25 40.3 49.25 42.09 48.36 42.09 47.46"/><polygon class="cls-1" points="108.35 47.46 109.25 49.25 111.93 49.25 112.83 47.46 112.83 34.92 111.93 27.76 110.14 23.28 106.56 26.86 108.35 36.71 108.35 47.46"/><polygon class="cls-1" points="145.96 59.1 145.96 52.83 144.17 45.67 141.49 40.3 137.9 34.92 133.43 30.45 128.05 26.86 122.68 25.07 116.41 23.28 110.14 23.28 107.96 18.91 112.83 18.8 116.41 18.8 120.89 19.7 127.16 21.49 130.74 23.28 135.22 25.97 139.69 29.55 144.17 34.92 147.75 42.09 150.44 50.15 150.44 57.31 149.54 65.37 146.86 72.53 145.96 59.1"/><polygon class="cls-1" points="111.04 89.55 118.2 88.65 126.26 86.86 133.43 82.38 139.69 76.11 144.17 67.16 145.96 57.92 145.96 52.83 146.86 72.53 145.07 76.11 141.49 81.49 137.01 85.07 130.74 89.55 124.47 92.23 116.41 94.03 112.83 94.03 111.04 89.55"/><polygon class="cls-1" points="94.06 122.68 94.03 102.98 94.03 102.08 93.13 101.19 91.34 101.19 90.44 101.19 89.55 102.08 89.55 102.98 89.36 122.68 94.06 122.68"/><rect class="cls-1" x="72.53" y="97.61" width="5.37" height="25.07"/><polygon class="cls-1" points="56.41 102.98 57.31 101.19 59.1 101.19 60 101.19 60.89 102.08 60.89 102.98 60.89 105.67 61.1 122.68 56.41 122.68 56.41 102.98"/><polygon class="cls-1" points="108.35 145.96 42.09 145.96 37.61 146.86 39.4 149.54 41.19 150.44 109.25 150.44 111.93 148.65 112.83 145.96 108.35 145.96"/><text class="cls-2" transform="translate(155.32 131.23)">V<tspan class="cls-3" x="79.3" y="0">irtual Cookbook</tspan></text></svg>